<?xml version="1.0" standalone="no"?>
<!DOCTYPE svg PUBLIC "-//W3C//DTD SVG 20010904//EN"
 "http://www.w3.org/TR/2001/REC-SVG-20010904/DTD/svg10.dtd">
<svg version="1.0" xmlns="http://www.w3.org/2000/svg"
 width="786.000000pt" height="786.000000pt" viewBox="0 0 786.000000 786.000000"
 preserveAspectRatio="xMidYMid meet">
<metadata>
Created by potrace 1.14, written by Peter Selinger 2001-2017
</metadata>
<g transform="translate(0.000000,786.000000) scale(0.100000,-0.100000)"
fill="#000000" stroke="none">
<path d="M3937 6984 c-1 -1 -49 -5 -107 -8 -58 -3 -114 -8 -125 -10 -11 -2
-47 -7 -80 -11 -32 -3 -62 -8 -65 -10 -3 -1 -25 -6 -50 -9 -46 -7 -81 -13 -90
-16 -3 -1 -9 -3 -15 -4 -5 -1 -37 -8 -70 -16 -33 -7 -63 -13 -67 -12 -5 1 -8
-2 -8 -7 0 -5 -8 -8 -17 -6 -10 1 -30 -4 -45 -12 -15 -7 -31 -13 -35 -13 -19
2 -93 -24 -93 -32 0 -5 -4 -7 -9 -3 -11 6 -194 -64 -199 -77 -2 -4 -7 -6 -12
-3 -4 2 -45 -13 -91 -36 -125 -60 -149 -73 -149 -81 0 -5 -3 -7 -7 -7 -17 3
-32 -2 -45 -13 -13 -12 -50 -34 -110 -65 -16 -8 -28 -19 -28 -24 0 -5 -3 -8
-7 -7 -14 5 -72 -36 -66 -45 3 -6 1 -7 -5 -3 -6 4 -20 -2 -31 -13 -11 -11 -22
-17 -25 -14 -3 3 -8 -2 -12 -11 -3 -9 -10 -16 -16 -16 -8 0 -184 -136 -215
-166 -7 -6 -9 -15 -5 -19 4 -4 3 -6 -3 -4 -16 4 -45 -12 -39 -22 3 -5 0 -9 -6
-9 -15 0 -41 -26 -33 -34 4 -3 1 -6 -6 -6 -16 0 -191 -181 -191 -198 0 -7 -4
-11 -8 -8 -4 2 -17 -6 -27 -20 -11 -13 -35 -41 -52 -62 -18 -20 -33 -43 -33
-49 0 -7 -4 -13 -8 -13 -5 0 -31 -32 -58 -71 -27 -39 -54 -76 -60 -82 -5 -7
-19 -28 -30 -47 -10 -19 -22 -37 -25 -40 -3 -3 -14 -21 -25 -40 -10 -19 -25
-41 -31 -48 -7 -7 -16 -24 -19 -38 -3 -13 -10 -24 -16 -24 -5 0 -7 -4 -4 -9 4
-5 2 -11 -3 -13 -5 -1 -11 -10 -13 -18 -2 -8 -6 -17 -9 -20 -7 -7 -89 -178
-92 -193 -1 -7 -4 -14 -7 -17 -3 -3 -15 -30 -26 -60 -12 -30 -31 -80 -43 -110
-12 -30 -23 -65 -25 -77 -3 -12 -9 -30 -14 -40 -13 -24 -77 -281 -81 -325 -1
-12 -32 3 -61 31 -39 37 -129 114 -154 130 -12 8 -24 20 -28 25 -4 6 -8 8 -8
4 0 -4 -11 3 -24 15 -32 29 -109 70 -176 93 -64 21 -209 25 -232 6 -8 -6 -17
-10 -20 -7 -10 10 -121 -49 -156 -82 -7 -7 -17 -13 -22 -13 -22 0 -136 -182
-125 -201 4 -5 1 -9 -5 -9 -7 0 -10 -6 -7 -14 3 -8 2 -16 -3 -18 -20 -7 -32
-217 -18 -318 10 -71 32 -160 40 -160 4 0 5 -7 2 -15 -3 -8 -2 -20 2 -27 5 -7
9 -19 10 -26 2 -8 6 -21 10 -30 9 -20 7 -15 23 -69 6 -24 16 -43 22 -43 6 0 8
-4 5 -9 -7 -10 33 -104 45 -109 5 -2 6 -8 3 -14 -4 -6 -3 -13 2 -17 5 -3 20
-30 33 -59 14 -28 28 -52 33 -52 4 0 7 -3 7 -7 -3 -21 2 -33 13 -27 6 4 8 3 5
-3 -3 -5 5 -26 18 -46 14 -20 25 -40 25 -44 0 -5 13 -23 29 -41 17 -17 27 -32
24 -32 -5 0 10 -21 62 -88 5 -8 20 -25 32 -38 12 -13 20 -24 17 -24 -3 0 5
-11 18 -23 13 -13 41 -44 62 -68 22 -24 43 -43 48 -42 4 2 7 -3 5 -10 -1 -6 4
-11 10 -10 7 2 13 -3 13 -10 0 -13 74 -83 168 -157 28 -23 52 -39 52 -36 0 3
12 -6 26 -19 15 -14 30 -22 35 -19 5 3 9 1 9 -5 0 -5 32 -28 70 -50 39 -22 68
-35 65 -28 -4 6 0 5 7 -4 13 -16 94 -57 112 -57 5 0 12 -4 15 -9 9 -12 103
-55 109 -49 2 3 18 -20 34 -52 16 -31 34 -58 38 -60 5 -2 6 -10 3 -18 -3 -8 0
-14 6 -14 6 0 11 -7 11 -15 0 -9 7 -18 15 -21 8 -4 12 -10 9 -16 -3 -5 2 -17
13 -26 10 -9 19 -24 21 -32 2 -8 8 -16 13 -18 5 -2 9 -8 9 -14 0 -15 92 -148
102 -148 4 0 8 -5 8 -11 0 -6 11 -25 25 -43 14 -17 34 -42 45 -56 11 -14 30
-36 41 -50 11 -14 30 -37 42 -52 12 -14 26 -24 32 -21 5 4 7 3 3 -2 -9 -9 45
-74 76 -92 12 -7 17 -12 13 -13 -8 0 43 -51 170 -170 17 -17 33 -30 36 -30 3
0 18 -13 35 -28 46 -43 191 -152 202 -152 6 0 10 -4 10 -8 0 -5 12 -15 28 -23
15 -8 29 -16 32 -19 5 -5 50 -34 127 -83 24 -15 49 -27 57 -27 8 0 16 -4 18
-9 2 -7 100 -62 118 -66 3 -1 39 -18 80 -37 125 -59 172 -78 181 -72 5 3 9 1
9 -4 0 -10 269 -100 350 -117 14 -2 45 -10 70 -16 25 -6 54 -12 65 -13 11 -2
45 -8 75 -14 58 -12 129 -22 195 -27 22 -2 66 -7 99 -11 112 -13 440 -7 576
10 87 11 136 18 154 22 12 3 35 7 51 9 17 2 37 6 45 8 8 2 45 9 83 17 37 7 67
18 67 22 0 5 5 6 10 3 6 -3 15 -3 22 1 7 4 26 9 43 11 16 2 32 8 33 13 2 6 7
8 12 5 7 -4 76 15 125 35 11 4 43 16 70 26 28 9 70 26 95 37 25 11 50 21 56
22 22 5 249 119 252 127 2 4 10 8 18 8 8 0 14 4 14 10 0 5 3 9 8 8 15 -4 81
36 75 45 -3 6 -2 7 3 4 12 -7 176 98 167 107 -3 3 0 6 8 6 21 0 80 45 71 54
-4 4 -2 6 4 4 14 -4 104 59 104 73 0 5 12 14 26 19 16 6 23 14 18 22 -4 7 -4
10 1 6 9 -8 91 62 88 74 -2 5 3 7 10 5 6 -1 11 4 9 11 -1 8 1 11 6 8 9 -5 142
124 141 137 0 5 3 12 7 15 4 4 4 0 -1 -8 -4 -8 12 7 36 35 24 27 43 53 41 58
-1 5 2 6 7 2 6 -3 15 5 22 17 7 13 18 28 24 33 29 24 235 314 235 331 0 4 6
15 14 23 7 9 31 48 51 86 21 39 42 75 46 81 5 6 6 14 2 17 -3 4 -2 7 4 7 5 0
15 11 21 24 8 18 17 24 34 21 28 -4 398 -17 518 -17 152 -1 241 16 326 61 51
28 134 100 134 117 0 8 4 14 9 14 7 0 19 29 25 60 1 3 5 11 10 19 25 39 -6
271 -36 271 -6 0 -9 3 -5 6 20 20 -156 264 -307 427 -24 26 -42 47 -39 47 3 0
-18 23 -46 52 -28 28 -51 55 -51 60 0 4 -7 8 -16 8 -8 0 -13 4 -10 8 3 5 -3
15 -12 24 -9 8 -42 42 -72 74 -30 32 -58 58 -62 56 -5 -1 -7 2 -5 7 2 10 -60
81 -72 81 -4 0 -8 6 -8 13 0 6 -3 64 -7 128 -7 116 -10 145 -22 222 -3 23 -7
51 -9 62 -6 52 -19 122 -35 190 -6 28 -14 61 -17 75 -7 33 -9 42 -16 60 -9 24
-20 74 -19 83 1 4 -2 7 -7 7 -5 0 -8 6 -8 13 2 22 -25 107 -34 107 -5 0 -8 3
-7 8 4 16 -14 72 -23 72 -6 0 -8 4 -4 9 5 9 -13 59 -25 71 -3 3 -6 12 -8 20
-2 8 -14 38 -27 65 -12 28 -33 73 -45 100 -13 28 -27 53 -32 56 -5 3 -10 12
-12 20 -2 14 -7 24 -46 89 -11 19 -23 43 -26 53 -4 9 -10 17 -15 17 -5 0 -9 5
-9 10 0 10 -116 190 -130 200 -3 3 -17 21 -30 40 -13 19 -29 40 -35 46 -5 6
-23 29 -40 50 -113 145 -419 444 -446 436 -5 -1 -8 2 -7 7 2 5 -1 10 -7 12 -5
2 -20 14 -32 28 -13 13 -23 20 -23 16 0 -4 -8 1 -17 11 -30 32 -110 84 -118
76 -5 -4 -5 -2 -2 5 4 7 -5 17 -23 25 -16 7 -30 17 -30 21 0 5 -4 6 -9 3 -5
-4 -11 -2 -13 3 -6 17 -248 156 -248 143 0 -4 -4 -2 -8 4 -10 16 -88 54 -96
47 -3 -4 -6 -1 -6 6 0 7 -4 10 -9 6 -5 -3 -16 2 -24 10 -9 8 -20 15 -26 15 -6
0 -32 10 -58 21 -99 45 -173 71 -173 62 0 -3 -6 -1 -12 4 -12 9 -70 31 -101
37 -7 2 -19 6 -27 9 -8 4 -26 8 -40 9 -14 2 -27 6 -30 9 -3 4 -22 10 -44 13
-21 4 -41 8 -45 11 -4 2 -21 6 -37 9 -30 6 -123 23 -159 30 -11 2 -42 7 -70
10 -27 4 -61 9 -75 11 -84 12 -454 27 -463 19z"/>
<path d="M6718 6643 c-10 -2 -18 -9 -18 -14 0 -6 -4 -8 -8 -5 -17 10 -67 -57
-86 -118 -31 -95 2 -186 68 -186 54 0 133 103 143 188 13 110 -21 156 -99 135z"/>
<path d="M7025 6213 c-92 -17 -167 -93 -142 -143 30 -59 126 -80 225 -48 34
12 62 25 62 29 0 5 7 9 15 9 15 0 35 37 35 64 0 22 -53 76 -80 82 -36 8 -92
11 -115 7z"/>
</g>
</svg>
